<svg width="388" height="178" viewBox="0 0 388 178" fill="none" xmlns="http://www.w3.org/2000/svg">
<path d="M232.1 132.4H240.2L263.9 0H255.8L232.1 132.4Z" fill="#D0D5DD"/>
<path d="M287.5 132.4H279.5L255.8 0H263.9L287.5 132.4Z" fill="#D0D5DD"/>
<path d="M19.1001 132.4H27.2001L50.8001 0H42.8001L19.1001 132.4Z" fill="#D0D5DD"/>
<path d="M285.1 6.3999H19.1001V54.4999H285.1V6.3999Z" fill="#D0D5DD"/>
<path d="M47.8999 52.3999H20.3999L35.6999 8.59985H63.1999L47.8999 52.3999Z" fill="#F9FAFB"/>
<path d="M103.1 52.3999H75.5L90.8 8.59985H118.4L103.1 52.3999Z" fill="#F9FAFB"/>
<path d="M158.3 52.3999H130.7L146 8.59985H173.6L158.3 52.3999Z" fill="#F9FAFB"/>
<path d="M213.4 52.3999H185.8L201.1 8.59985H228.7L213.4 52.3999Z" fill="#F9FAFB"/>
<path d="M268.6 52.3999H241L256.3 8.59985H283.9L268.6 52.3999Z" fill="#F9FAFB"/>
<path d="M74.4998 132.4H66.4998L42.7998 0H50.7998L74.4998 132.4Z" fill="#D0D5DD"/>
<path d="M118.8 130.24H81.1001V132.4H118.8V130.24Z" fill="#D0D5DD"/>
<path d="M96.5706 83.0622L86.1177 130.24H113.783L103.33 83.0622C102.564 79.4386 97.3371 79.4386 96.5706 83.0622Z" fill="#D0D5DD"/>
<path d="M105.421 92.4001H94.4801L91.832 104.386H108.069L105.421 92.4001Z" fill="#F9FAFB"/>
<path d="M108.487 106.477H91.4137L90.02 112.539H109.881L108.487 106.477Z" fill="#F9FAFB"/>
<path d="M367.7 128.3H296.7V132.4H367.7V128.3Z" fill="#D0D5DD"/>
<path d="M325.3 41.6999L306.1 128.4H358.1L338.9 41.6999C337.4 34.2999 327 34.2999 325.3 41.6999Z" fill="#D0D5DD"/>
<path d="M342.5 57.2H321.9L316.9 79.6999H347.4L342.5 57.2Z" fill="#F9FAFB"/>
<path d="M348.3 83.5999H316.1L313.5 94.9999H350.8L348.3 83.5999Z" fill="#F9FAFB"/>
<path opacity="0.25" d="M194 177.5C301.088 177.5 387.9 172.441 387.9 166.2C387.9 159.959 301.088 154.9 194 154.9C86.9121 154.9 0.100098 159.959 0.100098 166.2C0.100098 172.441 86.9121 177.5 194 177.5Z" fill="#D0D5DD"/>
<path d="M139.3 167.5H113.1L132.1 16.3H158.3L139.3 167.5Z" fill="#7F56D9"/>
<path opacity="0.25" d="M139.3 167.5H113.1L132.1 16.3H158.3L139.3 167.5Z" fill="black"/>
<path d="M236.9 167.5H210.7L229.8 16.3H256L236.9 167.5Z" fill="#7F56D9"/>
<path opacity="0.25" d="M236.9 167.5H210.7L229.8 16.3H256L236.9 167.5Z" fill="black"/>
<path d="M163.5 149.5H258.5L254.3 116.6H159.4L163.5 149.5Z" fill="#7F56D9"/>
<path d="M163.5 149.5H162L157.8 116.6H159.4L163.5 149.5Z" fill="#1D2939"/>
<path d="M253.2 118L257 148H251.4L236.3 118H253.2Z" fill="#F9FAFB"/>
<path d="M226.8 118L241.8 148H221.2L206.2 118H226.8Z" fill="#F9FAFB"/>
<path d="M196.6 118L211.7 148H191.1L176 118H196.6Z" fill="#F9FAFB"/>
<path d="M166.4 118L181.5 148H164.6L160.8 118H166.4Z" fill="#F9FAFB"/>
<path d="M249.4 167.5H275.6L256.5 16.3H230.3L249.4 167.5Z" fill="#7F56D9"/>
<path opacity="0.2" d="M238.8 83.5999L266.4 94.5L258.5 31.7H232.3L238.8 83.5999Z" fill="black"/>
<path d="M151.7 167.5H177.9L158.9 16.3H132.7L151.7 167.5Z" fill="#7F56D9"/>
<path opacity="0.2" d="M141.2 83.5999L168.7 94.5L160.8 31.7H134.6L141.2 83.5999Z" fill="black"/>
<path d="M130.7 76.7001H273.7L267.5 27.1001H124.5L130.7 76.7001Z" fill="#7F56D9"/>
<path d="M265.8 29.3L271.5 74.5H263.1L240.4 29.3H265.8Z" fill="#F9FAFB"/>
<path d="M226 29.3L248.7 74.5H217.6L195 29.3H226Z" fill="#F9FAFB"/>
<path d="M180.5 29.3L203.2 74.5H172.2L149.5 29.3H180.5Z" fill="#F9FAFB"/>
<path d="M135.1 29.3L157.8 74.5H132.4L126.7 29.3H135.1Z" fill="#F9FAFB"/>
</svg>
