<svg width="172" height="75" viewBox="0 0 172 75" fill="none" xmlns="http://www.w3.org/2000/svg">
<g filter="url(#filter0_dd_3920_193831)">
<path d="M36.7657 21.2447V8.77729L31.92 4.47693V18.4956C30.798 18.0374 29.6246 17.682 28.4019 17.4026V5.18993L23.1494 0.482784L22.5884 0L17.7181 4.62892V17.758C17.2331 17.8854 16.7749 18.0374 16.3145 18.2162V8.85328L12.593 11.8036V19.9975C12.184 20.2524 11.8018 20.5049 11.4196 20.7597V15.4692L8.8693 17.682V22.8965C4.84163 26.7901 2.34277 32.2348 2.34277 38.2651C2.34277 43.5825 4.3052 48.4416 7.51706 52.2078L7.54388 52.2323L7.72269 52.4357C8.30829 53.0973 8.92071 53.7075 9.58454 54.2931L23.811 68.4905L38.0666 54.2685C38.6768 53.7075 39.2892 53.1241 39.8256 52.5117L40.029 52.2592L40.0804 52.2078C43.2923 48.4662 45.2569 43.607 45.2569 38.2897C45.2569 31.3184 41.9154 25.1361 36.7657 21.2447ZM18.4579 4.93513L22.5884 1.01698V16.893C21.1848 16.969 19.8079 17.1724 18.4825 17.53V4.93513H18.4579ZM23.8378 55.6163C14.3766 55.6163 6.70124 47.9588 6.70124 38.5445C6.70124 29.1056 14.3766 21.4481 23.8378 21.4481C33.2968 21.4481 40.9722 29.1056 40.9722 38.5445C40.9722 47.9834 33.2968 55.6163 23.8378 55.6163Z" fill="white"/>
<path d="M22.9446 45.0319C22.0233 45.0319 21.1675 44.8655 20.377 44.5326C19.5925 44.1939 18.909 43.7303 18.3325 43.1419C17.7619 42.5476 17.3132 41.8522 16.9893 41.0498C16.6624 40.2415 16.502 39.3708 16.502 38.4348C16.502 37.469 16.6684 36.5775 17.0012 35.7602C17.34 34.946 17.8125 34.2358 18.4157 33.6325C19.016 33.0322 19.7262 32.5627 20.5434 32.2299C21.3577 31.8911 22.2432 31.7188 23.1942 31.7188C24.2462 31.7188 25.206 31.9208 26.0708 32.325C26.9326 32.7291 27.6666 33.2878 28.2698 34.001L25.9757 36.1644C25.1585 35.3561 24.258 34.9519 23.2774 34.9519C22.7781 34.9519 22.3265 35.0411 21.9223 35.2134C21.5182 35.3799 21.1645 35.6176 20.8644 35.9267C20.5702 36.2298 20.3414 36.5983 20.175 37.0321C20.0085 37.46 19.9253 37.9296 19.9253 38.4348C19.9253 38.9518 20.0085 39.4273 20.175 39.8612C20.3414 40.2891 20.5732 40.6635 20.8763 40.9785C21.1764 41.2965 21.5419 41.5461 21.9699 41.7274C22.3978 41.9027 22.8673 41.9889 23.3844 41.9889C24.1451 41.9889 24.8286 41.7868 25.4408 41.3827V39.7423H23.4438V37.2699H28.674V42.7259C27.9905 43.4628 27.1554 44.0334 26.1659 44.4376C25.1733 44.8328 24.1005 45.0319 22.9446 45.0319Z" fill="white"/>
<path d="M28.2578 39.7423H25.6309V37.3887H28.2578V34.7617H30.6114V37.3887H33.2384V39.7423H30.6114V42.3692H28.2578V39.7423Z" fill="white"/>
<path d="M70.5281 50.8192C68.7761 50.8192 67.1484 50.5027 65.6451 49.8697C64.1531 49.2254 62.8532 48.3438 61.7568 47.2247C60.6717 46.0944 59.8183 44.7719 59.2023 43.246C58.5806 41.7088 58.2754 40.0529 58.2754 38.2726C58.2754 36.4358 58.5919 34.7404 59.2249 33.1862C59.8691 31.6376 60.7677 30.2869 61.915 29.1396C63.0566 27.998 64.4074 27.1051 65.9616 26.4721C67.5101 25.8278 69.1943 25.5 71.0028 25.5C73.0035 25.5 74.8289 25.8843 76.4735 26.6529C78.1125 27.4215 79.5084 28.484 80.6557 29.8404L76.2927 33.9548C74.7385 32.4176 73.0261 31.6489 71.161 31.6489C70.2116 31.6489 69.3525 31.8185 68.5839 32.1463C67.8153 32.4628 67.1427 32.9149 66.5719 33.5027C66.0124 34.0791 65.5773 34.7799 65.2608 35.6051C64.9443 36.4189 64.786 37.3118 64.786 38.2726C64.786 39.256 64.9443 40.1602 65.2608 40.9854C65.5773 41.7992 66.0181 42.5113 66.5945 43.1104C67.1654 43.7151 67.8605 44.1898 68.6743 44.5346C69.4882 44.868 70.3811 45.0319 71.3645 45.0319C72.8113 45.0319 74.1112 44.6476 75.2754 43.879V40.7593H71.4775V36.0572H81.4243V46.4335C80.1245 47.8351 78.5364 48.9202 76.6544 49.6888C74.7667 50.4405 72.7265 50.8192 70.5281 50.8192Z" fill="white"/>
<path d="M89.1973 26.0425H95.3462V50.2765H89.1973V26.0425Z" fill="white"/>
<path d="M114.831 50.8192C113.079 50.8192 111.451 50.5027 109.948 49.8697C108.456 49.2254 107.156 48.3438 106.06 47.2247C104.974 46.0944 104.121 44.7719 103.505 43.246C102.883 41.7088 102.578 40.0529 102.578 38.2726C102.578 36.4358 102.895 34.7404 103.528 33.1862C104.172 31.6376 105.07 30.2869 106.218 29.1396C107.359 27.998 108.71 27.1051 110.264 26.4721C111.813 25.8278 113.497 25.5 115.306 25.5C117.306 25.5 119.132 25.8843 120.776 26.6529C122.415 27.4215 123.811 28.484 124.958 29.8404L120.595 33.9548C119.041 32.4176 117.329 31.6489 115.464 31.6489C114.514 31.6489 113.655 31.8185 112.887 32.1463C112.118 32.4628 111.445 32.9149 110.875 33.5027C110.315 34.0791 109.88 34.7799 109.563 35.6051C109.247 36.4189 109.089 37.3118 109.089 38.2726C109.089 39.256 109.247 40.1602 109.563 40.9854C109.88 41.7992 110.321 42.5113 110.897 43.1104C111.468 43.7151 112.163 44.1898 112.977 44.5346C113.791 44.868 114.684 45.0319 115.667 45.0319C117.114 45.0319 118.414 44.6476 119.578 43.879V40.7593H115.78V36.0572H125.727V46.4335C124.427 47.8351 122.839 48.9202 120.957 49.6888C119.069 50.4405 117.029 50.8192 114.831 50.8192Z" fill="white"/>
<path d="M140.417 51C138.456 51 136.709 50.5592 135.172 49.6888C133.646 48.8015 132.425 47.5299 131.51 45.8684L135.669 42.4322C136.223 43.5173 136.89 44.3424 137.659 44.8963C138.427 45.4388 139.292 45.7101 140.258 45.7101C141.027 45.7101 141.643 45.5406 142.112 45.1902C142.593 44.8454 142.836 44.3933 142.836 43.8338C142.836 43.5795 142.773 43.3364 142.655 43.1104C142.53 42.873 142.338 42.6356 142.067 42.4096C141.807 42.1835 141.44 41.9518 140.959 41.7088C140.49 41.4714 139.919 41.1775 139.241 40.8271C137.026 39.8042 135.409 38.6739 134.403 37.4362C133.409 36.2041 132.911 34.7347 132.911 33.0279C132.911 31.8976 133.115 30.869 133.522 29.9309C133.94 28.9983 134.516 28.2071 135.24 27.5572C135.975 26.9129 136.856 26.4043 137.885 26.0426C138.908 25.6809 140.021 25.5 141.231 25.5C142.824 25.5 144.271 25.8334 145.571 26.4947C146.882 27.1616 148.103 28.1789 149.233 29.5465L145.3 33.1636C144.621 32.248 143.966 31.5811 143.333 31.1742C142.711 30.7673 142.027 30.5638 141.276 30.5638C140.581 30.5638 140.038 30.7164 139.648 31.016C139.252 31.3211 139.06 31.7507 139.06 32.3045C139.06 33.0279 139.382 33.6044 140.032 34.0226C140.694 34.4465 141.57 34.8986 142.655 35.379C144.898 36.3906 146.532 37.5266 147.56 38.7926C148.583 40.0585 149.098 41.5618 149.098 43.2912C149.098 44.4555 148.883 45.5066 148.465 46.4561C148.041 47.3943 147.436 48.1968 146.656 48.875C145.887 49.5419 144.966 50.0618 143.898 50.4348C142.841 50.8078 141.683 51 140.417 51Z" fill="white"/>
<path d="M160.184 40.7592H155.188V36.2831H160.184V31.2871H164.661V36.2831H169.657V40.7592H164.661V45.7552H160.184V40.7592Z" fill="white"/>
</g>
<defs>
<filter id="filter0_dd_3920_193831" x="0.342773" y="0" width="171.313" height="74.4907" filterUnits="userSpaceOnUse" color-interpolation-filters="sRGB">
<feFlood flood-opacity="0" result="BackgroundImageFix"/>
<feColorMatrix in="SourceAlpha" type="matrix" values="0 0 0 0 0 0 0 0 0 0 0 0 0 0 0 0 0 0 127 0" result="hardAlpha"/>
<feMorphology radius="2" operator="erode" in="SourceAlpha" result="effect1_dropShadow_3920_193831"/>
<feOffset dy="4"/>
<feGaussianBlur stdDeviation="2"/>
<feColorMatrix type="matrix" values="0 0 0 0 0.0941176 0 0 0 0 0.152941 0 0 0 0 0.294118 0 0 0 0.08 0"/>
<feBlend mode="normal" in2="BackgroundImageFix" result="effect1_dropShadow_3920_193831"/>
<feColorMatrix in="SourceAlpha" type="matrix" values="0 0 0 0 0 0 0 0 0 0 0 0 0 0 0 0 0 0 127 0" result="hardAlpha"/>
<feMorphology radius="2" operator="erode" in="SourceAlpha" result="effect2_dropShadow_3920_193831"/>
<feOffset dy="2"/>
<feGaussianBlur stdDeviation="2"/>
<feColorMatrix type="matrix" values="0 0 0 0 0.0941176 0 0 0 0 0.152941 0 0 0 0 0.294118 0 0 0 0.12 0"/>
<feBlend mode="normal" in2="effect1_dropShadow_3920_193831" result="effect2_dropShadow_3920_193831"/>
<feBlend mode="normal" in="SourceGraphic" in2="effect2_dropShadow_3920_193831" result="shape"/>
</filter>
</defs>
</svg>
